# This file uses meters as units for non-parametric coordinates.

mtllib randomPickUp2.mtl
g default
v -31.178882 85.092224 -20.755569
v -32.909240 85.555903 -20.753156
v -34.175958 86.822658 -20.751499
v -34.639637 88.553243 -20.750748
v -31.121562 85.092224 20.841132
v -34.582317 88.553243 20.845802
v -34.118638 86.822658 20.845350
v -32.851883 85.555903 20.843391
v -31.178882 168.907625 -20.755569
v -34.639637 165.447058 -20.750748
v -34.175958 167.177643 -20.751499
v -32.909240 168.444248 -20.753156
v -31.121562 168.907625 20.841132
v -32.851883 168.444248 20.843391
v -34.118638 167.177643 20.845350
v -34.582317 165.447058 20.845802
v 34.582279 165.447058 -20.846105
v 31.121562 168.907625 -20.841435
v 32.851883 168.444248 -20.843843
v 34.118676 167.177643 -20.845500
v 34.639599 165.447058 20.750746
v 34.176033 167.177643 20.751198
v 32.909240 168.444248 20.753156
v 31.178882 168.907625 20.755416
v 31.121562 85.092224 -20.841435
v 34.582279 88.553243 -20.846105
v 34.118676 86.822658 -20.845500
v 32.851883 85.555903 -20.843843
v 31.178882 85.092224 20.755416
v 32.909240 85.555903 20.753156
v 34.176033 86.822658 20.751198
v 34.639599 88.553243 20.750746
v -34.635494 88.553243 -19.088358
v -34.171815 86.822658 -19.088960
v -32.905098 85.555903 -19.090616
v -31.174701 85.092224 -19.093028
v 31.125742 85.092224 -19.178894
v 32.856063 85.555903 -19.181607
v 34.122819 86.822658 -19.183111
v 34.586422 88.553243 -19.183714
v 34.586422 165.447058 -19.183714
v 34.122819 167.177643 -19.183111
v 32.856063 168.444248 -19.181607
v 31.125742 168.907625 -19.178894
v -31.174701 168.907625 -19.093028
v -32.905098 168.444248 -19.090616
v -34.171815 167.177643 -19.088960
v -34.635494 165.447058 -19.088358
v -31.124123 85.092224 18.995455
v -32.854482 85.555903 18.997866
v -34.121202 86.822658 18.999674
v -34.584840 88.553243 19.000126
v -34.584840 165.447058 19.000126
v -34.121202 167.177643 18.999674
v -32.854482 168.444248 18.997866
v -31.124123 168.907625 18.995455
v 31.176321 168.907625 18.909439
v 32.906677 168.444248 18.907179
v 34.173475 167.177643 18.905220
v 34.637073 165.447058 18.904768
v 34.637073 88.553243 18.904768
v 34.173475 86.822658 18.905220
v 32.906677 85.555903 18.907179
v 31.176321 85.092224 18.909439
v -31.178392 85.092224 -20.394777
v -32.908748 85.555903 -20.392367
v -34.175506 86.822658 -20.390710
v -34.639145 88.553243 -20.389956
v -34.639145 165.447058 -20.389956
v -34.175506 167.177643 -20.390710
v -32.908748 168.444248 -20.392367
v -31.178392 168.907625 -20.394777
v 31.122052 168.907625 -20.480493
v 32.852373 168.444248 -20.482903
v 34.119130 167.177643 -20.484560
v 34.582769 165.447058 -20.485163
v 34.582769 88.553243 -20.485163
v 34.119130 86.822658 -20.484560
v 32.852373 85.555903 -20.482903
v 31.122052 85.092224 -20.480493
v 34.175355 86.822508 20.276372
v 34.638996 88.553243 20.275920
v 34.638996 165.447058 20.275920
v 34.175355 167.177643 20.276372
v 32.908562 168.444248 20.278481
v 31.178241 168.907625 20.280590
v -31.122202 168.907625 20.366456
v -32.852596 168.444248 20.369017
v -34.119316 167.177643 20.370825
v -34.582960 165.447058 20.371277
v -34.582960 88.553243 20.371277
v -34.119316 86.822508 20.370825
v -32.852596 85.555903 20.369017
v -31.122202 85.092224 20.366456
v 31.178241 85.092224 20.280590
v 32.908562 85.555903 20.278481
v -34.639561 88.553243 -20.695309
v -34.175918 86.822508 -20.696063
v -32.909165 85.555903 -20.697569
v -31.178806 85.092224 -20.700130
v 31.121600 85.092224 -20.785996
v 32.851958 85.555903 -20.788407
v 34.118714 86.822508 -20.790214
v 34.582395 88.552942 -20.790817
v 34.582395 165.447058 -20.790817
v 34.118714 167.177643 -20.790214
v 32.851958 168.444248 -20.788407
v 31.121600 168.907625 -20.785996
v -31.178806 168.907625 -20.700130
v -32.909165 168.444248 -20.697569
v -34.175918 167.177643 -20.696063
v -34.639561 165.447058 -20.695309
v -28.813825 94.960986 20.837881
v 28.871104 94.960986 20.758669
v 28.871104 159.039316 20.758669
v -28.813825 159.039316 20.837881
v -28.871144 94.960986 -20.758695
v 28.813785 94.960986 -20.838159
v -28.871144 159.039316 -20.758695
v 28.813785 159.039316 -20.838159
v -28.820008 94.960986 16.259179
v 28.864921 94.960986 16.180336
v 28.864921 159.039316 16.180336
v -28.820008 159.039316 16.259179
v -28.864940 94.960986 -16.180360
v 28.819987 94.960986 -16.259453
v -28.864940 159.039316 -16.180360
v 28.819987 159.039316 -16.259453
v -34.635494 165.447058 -19.088358
v -34.635494 88.553243 -19.088358
v -34.584840 88.553243 19.000126
v -34.584840 165.447058 19.000126
v 34.586422 88.553243 -19.183714
v 34.586422 165.447058 -19.183714
v 34.637073 165.447058 18.904768
v 34.637073 88.553243 18.904768
vt 0.157889 0.511687
vt 0.154167 0.816280
vt 0.008589 0.814553
vt 0.012268 0.509814
vt 0.430440 0.489455
vt 0.183461 0.486388
vt 0.185420 0.340753
vt 0.432197 0.343874
vt 0.452026 0.819871
vt 0.455353 0.515327
vt 0.601099 0.516746
vt 0.597661 0.821589
vt 0.179410 0.842175
vt 0.426176 0.845147
vt 0.424483 0.990661
vt 0.177665 0.987710
vt 0.175828 0.015213
vt 0.189700 0.001683
vt 0.436364 0.004750
vt 0.449897 0.018622
vt 0.446143 0.323093
vt 0.432252 0.336598
vt 0.185551 0.333479
vt 0.172002 0.319634
vt 0.440109 0.819686
vt 0.426265 0.833215
vt 0.179603 0.830240
vt 0.166083 0.816380
vt 0.169679 0.511950
vt 0.183366 0.498366
vt 0.430232 0.501418
vt 0.443568 0.515320
vt 0.154134 0.823425
vt 0.008501 0.821655
vt 0.154047 0.830573
vt 0.008413 0.828758
vt 0.172268 0.842068
vt 0.170567 0.987627
vt 0.176302 0.486288
vt 0.178274 0.340603
vt 0.158266 0.497272
vt 0.158016 0.504540
vt 0.012349 0.502702
vt 0.012430 0.495589
vt 0.455210 0.508096
vt 0.601183 0.509620
vt 0.455126 0.500822
vt 0.601267 0.502494
vt 0.437597 0.489542
vt 0.439343 0.343910
vt 0.433318 0.845208
vt 0.431582 0.990743
vt 0.451807 0.834168
vt 0.451891 0.827018
vt 0.597582 0.828699
vt 0.597502 0.835809
vt 0.172527 0.828786
vt 0.167277 0.823449
vt 0.177750 0.008390
vt 0.182827 0.003437
vt 0.170965 0.505540
vt 0.175485 0.499599
vt 0.178670 0.331945
vt 0.173689 0.326680
vt 0.438043 0.502862
vt 0.442412 0.508883
vt 0.444285 0.330109
vt 0.439175 0.335253
vt 0.438753 0.826730
vt 0.433376 0.831936
vt 0.443188 0.006669
vt 0.448143 0.011746
vt 0.165865 0.816378
vt 0.167006 0.823462
vt 0.165539 0.823517
vt 0.164666 0.816368
vt 0.166613 0.831204
vt 0.165288 0.831133
vt 0.172483 0.829073
vt 0.179599 0.830458
vt 0.179578 0.831658
vt 0.172313 0.830636
vt 0.426264 0.833432
vt 0.426256 0.834633
vt 0.433413 0.832223
vt 0.433545 0.833790
vt 0.439256 0.834499
vt 0.439023 0.826749
vt 0.440493 0.826839
vt 0.440579 0.834457
vt 0.440326 0.819690
vt 0.441527 0.819708
vt 0.443782 0.515321
vt 0.444967 0.515324
vt 0.442597 0.508859
vt 0.443676 0.508724
vt 0.438433 0.502646
vt 0.440638 0.501687
vt 0.438050 0.502555
vt 0.430237 0.501200
vt 0.430262 0.499996
vt 0.438032 0.500913
vt 0.183367 0.498147
vt 0.183371 0.496941
vt 0.175487 0.499290
vt 0.175558 0.497648
vt 0.175093 0.499370
vt 0.170777 0.505512
vt 0.169688 0.505356
vt 0.172875 0.498351
vt 0.169464 0.511946
vt 0.168279 0.511923
vt 0.170509 0.993058
vt 0.177600 0.993141
vt 0.177578 0.995022
vt 0.170488 0.994935
vt 0.003069 0.821589
vt 0.002982 0.828689
vt 0.001102 0.828667
vt 0.001188 0.821566
vt 0.003155 0.814487
vt 0.001274 0.814464
vt 0.006833 0.509749
vt 0.004953 0.509726
vt 0.006907 0.502642
vt 0.005023 0.502622
vt 0.006984 0.495527
vt 0.005098 0.495506
vt 0.185517 0.335344
vt 0.178326 0.334301
vt 0.432239 0.338464
vt 0.439464 0.337623
vt 0.606642 0.509686
vt 0.606738 0.502580
vt 0.608623 0.502605
vt 0.608530 0.509709
vt 0.606537 0.516808
vt 0.608420 0.516829
vt 0.603098 0.821650
vt 0.604980 0.821671
vt 0.603037 0.828762
vt 0.604928 0.828778
vt 0.602964 0.835909
vt 0.604865 0.835936
vt 0.424419 0.996093
vt 0.431536 0.996175
vt 0.431520 0.998061
vt 0.424397 0.997974
vt 0.166854 0.831216
vt 0.439016 0.834506
vt 0.175828 0.015213
vt 0.449897 0.018622
vt 0.446143 0.323093
vt 0.172002 0.319634
vt 0.440109 0.819686
vt 0.166083 0.816380
vt 0.169679 0.511950
vt 0.443568 0.515320
vt 0.175828 0.015213
vt 0.449897 0.018622
vt 0.446143 0.323093
vt 0.172002 0.319634
vt 0.440109 0.819686
vt 0.166083 0.816380
vt 0.169679 0.511950
vt 0.443568 0.515320
vt 0.157889 0.511687
vt 0.154167 0.816280
vt 0.008589 0.814553
vt 0.012268 0.509814
vt 0.452026 0.819871
vt 0.455353 0.515327
vt 0.601099 0.516746
vt 0.597661 0.821589
vn -0.999982 0.005897 0.001379
vn -0.999982 -0.005897 0.001379
vn -0.999982 -0.005897 0.001379
vn -0.999982 0.005897 0.001379
vn 0.007241 0.999974 -0.000010
vn -0.007241 0.999974 0.000010
vn -0.007241 0.999974 0.000010
vn 0.007241 0.999974 -0.000010
vn 0.999982 -0.005897 -0.001378
vn 0.999982 0.005897 -0.001378
vn 0.999982 0.005897 -0.001378
vn 0.999982 -0.005896 -0.001378
vn -0.007241 -0.999974 0.000010
vn 0.007241 -0.999974 -0.000010
vn 0.007241 -0.999974 -0.000010
vn -0.007241 -0.999974 0.000010
vn -0.013630 -0.000088 0.999907
vn 0.016381 -0.000088 0.999866
vn 0.016382 0.000088 0.999866
vn -0.013630 0.000088 0.999907
vn 0.023169 -0.000145 -0.999732
vn -0.001195 -0.025216 -0.999681
vn -0.001561 -0.025216 -0.999681
vn -0.025924 -0.000145 -0.999664
vn -0.999982 -0.005897 0.001379
vn -0.866027 -0.499995 0.001193
vn -0.866026 -0.499997 0.001193
vn -0.999982 -0.005897 0.001379
vn -0.500002 -0.866024 0.000689
vn -0.500005 -0.866022 0.000689
vn -0.499995 0.866028 0.000689
vn -0.499999 0.866026 0.000689
vn -0.866023 0.500003 0.001193
vn -0.866022 0.500005 0.001193
vn -0.999982 0.005897 0.001379
vn -0.999982 0.005897 0.001379
vn 0.999982 0.005897 -0.001378
vn 0.866022 0.500005 -0.001193
vn 0.866024 0.500001 -0.001194
vn 0.999982 0.005897 -0.001378
vn 0.499994 0.866029 -0.000689
vn 0.499994 0.866029 -0.000689
vn 0.500000 -0.866025 -0.000689
vn 0.500001 -0.866025 -0.000689
vn 0.866025 -0.499999 -0.001194
vn 0.866028 -0.499994 -0.001194
vn 0.999982 -0.005897 -0.001378
vn 0.999982 -0.005896 -0.001378
vn -0.454632 -0.786466 -0.418068
vn -0.773106 -0.445988 -0.451001
vn 0.001263 -0.015416 0.999880
vn -0.013630 -0.000088 0.999907
vn -0.665760 -0.384862 0.639253
vn -0.398301 -0.691373 0.602794
vn -0.001561 0.025216 -0.999681
vn -0.025924 0.000145 -0.999664
vn -0.773104 0.445995 -0.450997
vn -0.454627 0.786471 -0.418064
vn 0.001263 0.015416 0.999880
vn -0.398298 0.691379 0.602788
vn -0.665760 0.384870 0.639248
vn -0.013630 0.000088 0.999907
vn 0.023169 0.000145 -0.999732
vn -0.001195 0.025216 -0.999681
vn 0.453473 0.786451 -0.419352
vn 0.771873 0.445981 -0.453115
vn 0.016382 0.000088 0.999866
vn 0.667571 0.384913 0.637331
vn 0.399992 0.691378 0.601667
vn 0.001487 0.015416 0.999880
vn 0.771876 -0.445974 -0.453117
vn 0.453479 -0.786445 -0.419358
vn 0.001487 -0.015416 0.999880
vn 0.399995 -0.691372 0.601672
vn 0.667571 -0.384906 0.637335
vn 0.016381 -0.000088 0.999866
vn -0.999982 -0.005897 0.001366
vn -0.865985 -0.500067 0.001390
vn -0.866092 -0.499879 0.002253
vn -0.999979 -0.005896 0.002531
vn -0.499995 -0.866028 0.000954
vn -0.500151 -0.865937 0.001365
vn -0.007239 -0.999974 -0.000059
vn -0.007251 -0.999974 -0.000127
vn 0.007241 -0.999974 -0.000094
vn 0.007230 -0.999974 -0.000165
vn 0.499998 -0.866026 -0.000821
vn 0.499862 -0.866104 -0.001237
vn 0.865963 -0.500107 -0.001128
vn 0.865999 -0.500040 -0.002150
vn 0.999982 -0.005909 -0.001355
vn 0.999979 -0.005896 -0.002505
vn 0.999982 0.005897 -0.001358
vn 0.999979 0.005898 -0.002506
vn 0.866022 0.500005 -0.001014
vn 0.865984 0.500067 -0.002161
vn 0.499918 0.866073 -0.000435
vn 0.499768 0.866159 -0.001192
vn 0.007236 0.999974 -0.000088
vn 0.007226 0.999974 -0.000049
vn -0.007235 0.999974 -0.000062
vn -0.007247 0.999974 -0.000012
vn -0.499912 0.866076 0.000862
vn -0.500056 0.865992 0.001275
vn -0.866033 0.499985 0.001130
vn -0.866075 0.499910 0.002162
vn -0.999982 0.005897 0.001361
vn -0.999979 0.005896 0.002531
vn -0.500005 -0.866022 0.000654
vn -0.007240 -0.999974 -0.000017
vn -0.866033 -0.499986 0.001133
vn -0.999982 -0.005897 0.001367
vn -0.999982 0.005897 0.001368
vn -0.866033 0.499985 0.001209
vn -0.499923 0.866069 0.000717
vn -0.007236 0.999974 -0.000012
vn 0.007238 0.999974 -0.000031
vn 0.499906 0.866079 -0.000628
vn 0.866024 0.500001 -0.001170
vn 0.999982 0.005896 -0.001368
vn 0.999982 -0.005896 -0.001368
vn 0.866023 -0.500002 -0.001205
vn 0.499988 -0.866032 -0.000727
vn 0.007242 -0.999974 -0.000039
vn 0.023169 -0.000145 -0.999732
vn -0.025924 -0.000145 -0.999664
vn -0.025924 0.000145 -0.999664
vn 0.023169 0.000145 -0.999732
vn 0.016381 -0.000088 0.999866
vn -0.013630 -0.000088 0.999907
vn 0.016382 0.000088 0.999866
vn -0.013630 0.000088 0.999907
vn -0.025924 -0.000145 -0.999664
vn 0.023169 -0.000145 -0.999732
vn -0.025924 0.000145 -0.999664
vn 0.023169 0.000145 -0.999732
vn -0.013630 -0.000088 0.999907
vn 0.016381 -0.000088 0.999866
vn 0.016381 -0.000088 0.999866
vn -0.013630 -0.000088 0.999907
vn 0.016381 -0.000088 0.999866
vn 0.016382 0.000088 0.999866
vn 0.016382 0.000088 0.999866
vn 0.016381 -0.000088 0.999866
vn 0.016382 0.000088 0.999866
vn -0.013630 0.000088 0.999907
vn -0.013630 0.000088 0.999907
vn 0.016382 0.000088 0.999866
vn -0.013630 0.000088 0.999907
vn -0.013630 -0.000088 0.999907
vn -0.013630 -0.000088 0.999907
vn -0.013630 0.000088 0.999907
vn 0.023169 -0.000145 -0.999732
vn -0.025924 -0.000145 -0.999664
vn -0.025924 -0.000145 -0.999664
vn 0.023169 -0.000145 -0.999732
vn -0.025924 -0.000145 -0.999664
vn -0.025924 0.000145 -0.999664
vn -0.025924 0.000145 -0.999664
vn -0.025924 -0.000145 -0.999664
vn -0.025924 0.000145 -0.999664
vn 0.023169 0.000145 -0.999732
vn 0.023169 0.000145 -0.999732
vn -0.025924 0.000145 -0.999664
vn 0.023169 0.000145 -0.999732
vn 0.023169 -0.000145 -0.999732
vn 0.023169 -0.000145 -0.999732
vn 0.023169 0.000145 -0.999732
vn -0.999982 0.005897 0.001379
vn -0.999982 -0.005897 0.001379
vn -0.999982 -0.005897 0.001379
vn -0.999982 0.005897 0.001379
vn -0.999982 -0.005897 0.001379
vn -0.999982 -0.005897 0.001379
vn -0.999982 -0.005897 0.001379
vn -0.999982 -0.005897 0.001379
vn -0.999982 -0.005897 0.001379
vn -0.999982 0.005897 0.001379
vn -0.999982 0.005897 0.001379
vn -0.999982 -0.005897 0.001379
vn -0.999982 0.005897 0.001379
vn -0.999982 0.005897 0.001379
vn -0.999982 0.005897 0.001379
vn -0.999982 0.005897 0.001379
vn 0.999982 -0.005897 -0.001378
vn 0.999982 0.005897 -0.001378
vn 0.999982 0.005897 -0.001378
vn 0.999982 -0.005897 -0.001378
vn 0.999982 0.005897 -0.001378
vn 0.999982 0.005897 -0.001378
vn 0.999982 0.005897 -0.001378
vn 0.999982 0.005897 -0.001378
vn 0.999982 0.005897 -0.001378
vn 0.999982 -0.005896 -0.001378
vn 0.999982 -0.005896 -0.001378
vn 0.999982 0.005897 -0.001378
vn 0.999982 -0.005896 -0.001378
vn 0.999982 -0.005897 -0.001378
vn 0.999982 -0.005897 -0.001378
vn 0.999982 -0.005896 -0.001378
s off
g pCube32
usemtl blinn1SG
f 129/167/1 130/168/2 131/169/3 132/170/4
s 1
f 44/5/5 45/6/6 56/7/7 57/8/8
s off
f 133/171/9 134/172/10 135/173/11 136/174/12
s 1
f 36/13/13 37/14/14 64/15/15 49/16/16
s off
f 121/159/17 122/160/18 123/161/19 124/162/20
s 1
f 26/25/21 25/26/22 1/27/23 4/28/24
f 33/2/25 34/33/26 51/34/27 52/3/28
f 34/33/26 35/35/29 50/36/30 51/34/27
f 35/37/29 36/13/13 49/16/16 50/38/30
f 45/6/6 46/39/31 55/40/32 56/7/7
f 46/41/31 47/42/33 54/43/34 55/44/32
f 47/42/33 48/1/35 53/4/36 54/43/34
f 41/10/37 42/45/38 59/46/39 60/11/40
f 42/45/38 43/47/41 58/48/42 59/46/39
f 43/49/41 44/5/5 57/8/8 58/50/42
f 37/14/14 38/51/43 63/52/44 64/15/15
f 38/53/43 39/54/45 62/55/46 63/56/44
f 39/54/45 40/9/47 61/12/48 62/55/46
f 1/27/23 2/57/49 3/58/50 4/28/24
f 5/18/51 6/17/52 7/59/53 8/60/54
f 9/30/55 10/29/56 11/61/57 12/62/58
f 13/23/59 14/63/60 15/64/61 16/24/62
f 17/32/63 18/31/64 19/65/65 20/66/66
f 21/21/67 22/67/68 23/68/69 24/22/70
f 25/26/22 26/25/21 27/69/71 28/70/72
f 29/19/73 30/71/74 31/72/75 32/20/76
f 97/73/77 98/74/78 67/75/79 68/76/80
f 98/74/78 99/77/81 66/78/82 67/75/79
f 99/79/81 100/80/83 65/81/84 66/82/82
f 100/80/83 101/83/85 80/84/86 65/81/84
f 101/83/85 102/85/87 79/86/88 80/84/86
f 102/87/87 103/88/89 78/89/90 79/90/88
f 103/88/89 104/91/91 77/92/92 78/89/90
f 104/91/91 105/93/93 76/94/94 77/92/92
f 105/93/93 106/95/95 75/96/96 76/94/94
f 106/95/95 107/97/97 74/98/98 75/96/96
f 107/99/97 108/100/99 73/101/100 74/102/98
f 108/100/99 109/103/101 72/104/102 73/101/100
f 109/103/101 110/105/103 71/106/104 72/104/102
f 110/107/103 111/108/105 70/109/106 71/110/104
f 111/108/105 112/111/107 69/112/108 70/109/106
f 112/111/107 97/73/77 68/76/80 69/112/108
f 93/113/109 94/114/110 5/115/51 8/116/54
f 92/117/111 93/118/109 8/119/54 7/120/53
f 91/121/112 92/117/111 7/120/53 6/122/52
f 90/123/113 91/121/112 6/122/52 16/124/62
f 89/125/114 90/123/113 16/124/62 15/126/61
f 88/127/115 89/125/114 15/126/61 14/128/60
f 87/129/116 88/130/115 14/63/60 13/23/59
f 86/131/117 87/129/116 13/23/59 24/22/70
f 85/132/118 86/131/117 24/22/70 23/68/69
f 84/133/119 85/134/118 23/135/69 22/136/68
f 83/137/120 84/133/119 22/136/68 21/138/67
f 82/139/121 83/137/120 21/138/67 32/140/76
f 81/141/122 82/139/121 32/140/76 31/142/75
f 96/143/123 81/141/122 31/142/75 30/144/74
f 95/145/124 96/146/123 30/147/74 29/148/73
f 94/114/110 95/145/124 29/148/73 5/115/51
f 66/82/82 65/81/84 36/13/13 35/37/29
f 67/75/79 66/78/82 35/35/29 34/33/26
f 68/76/80 67/75/79 34/33/26 33/2/25
f 69/112/108 68/76/80 33/2/25 48/1/35
f 70/109/106 69/112/108 48/1/35 47/42/33
f 71/110/104 70/109/106 47/42/33 46/41/31
f 72/104/102 71/106/104 46/39/31 45/6/6
f 73/101/100 72/104/102 45/6/6 44/5/5
f 74/102/98 73/101/100 44/5/5 43/49/41
f 75/96/96 74/98/98 43/47/41 42/45/38
f 76/94/94 75/96/96 42/45/38 41/10/37
f 77/92/92 76/94/94 41/10/37 40/9/47
f 78/89/90 77/92/92 40/9/47 39/54/45
f 79/90/88 78/89/90 39/54/45 38/53/43
f 80/84/86 79/86/88 38/51/43 37/14/14
f 65/81/84 80/84/86 37/14/14 36/13/13
f 62/55/46 61/12/48 82/139/121 81/141/122
f 61/12/48 60/11/40 83/137/120 82/139/121
f 60/11/40 59/46/39 84/133/119 83/137/120
f 59/46/39 58/48/42 85/134/118 84/133/119
f 58/50/42 57/8/8 86/131/117 85/132/118
f 57/8/8 56/7/7 87/129/116 86/131/117
f 56/7/7 55/40/32 88/130/115 87/129/116
f 55/44/32 54/43/34 89/125/114 88/127/115
f 54/43/34 53/4/36 90/123/113 89/125/114
f 53/4/36 52/3/28 91/121/112 90/123/113
f 52/3/28 51/34/27 92/117/111 91/121/112
f 51/34/27 50/36/30 93/118/109 92/117/111
f 50/38/30 49/16/16 94/114/110 93/113/109
f 49/16/16 64/15/15 95/145/124 94/114/110
f 64/15/15 63/52/44 96/146/123 95/145/124
f 63/56/44 62/55/46 81/141/122 96/143/123
f 4/28/24 3/58/50 98/74/78 97/73/77
f 3/58/50 2/149/49 99/77/81 98/74/78
f 2/57/49 1/27/23 100/80/83 99/79/81
f 25/26/22 101/83/85 100/80/83 1/27/23
f 25/26/22 28/70/72 102/85/87 101/83/85
f 28/150/72 27/69/71 103/88/89 102/87/87
f 27/69/71 26/25/21 104/91/91 103/88/89
f 17/32/63 105/93/93 104/91/91 26/25/21
f 17/32/63 20/66/66 106/95/95 105/93/93
f 20/66/66 19/65/65 107/97/97 106/95/95
f 19/65/65 18/31/64 108/100/99 107/99/97
f 9/30/55 109/103/101 108/100/99 18/31/64
f 9/30/55 12/62/58 110/105/103 109/103/101
f 12/62/58 11/61/57 111/108/105 110/107/103
f 11/61/57 10/29/56 112/111/107 111/108/105
f 4/28/24 97/73/77 112/111/107 10/29/56
f 17/32/63 10/29/56 9/30/55 18/31/64
s off
f 126/163/125 125/164/126 127/165/127 128/166/128
s 1
f 16/24/62 21/21/67 24/22/70 13/23/59
f 6/17/52 5/18/51 29/19/73 32/20/76
f 6/17/52 32/20/76 114/152/129 113/151/130
f 32/20/76 21/21/67 115/153/131 114/152/129
f 21/21/67 16/24/62 116/154/132 115/153/131
f 16/24/62 6/17/52 113/151/130 116/154/132
f 26/25/21 4/28/24 117/156/133 118/155/134
f 4/28/24 10/29/56 119/157/135 117/156/133
f 10/29/56 17/32/63 120/158/136 119/157/135
f 17/32/63 26/25/21 118/155/134 120/158/136
s off
f 113/151/137 114/152/138 122/160/139 121/159/140
f 114/152/141 115/153/142 123/161/143 122/160/144
f 115/153/145 116/154/146 124/162/147 123/161/148
f 116/154/149 113/151/150 121/159/151 124/162/152
f 118/155/153 117/156/154 125/164/155 126/163/156
f 117/156/157 119/157/158 127/165/159 125/164/160
f 119/157/161 120/158/162 128/166/163 127/165/164
f 120/158/165 118/155/166 126/163/167 128/166/168
f 48/1/169 33/2/170 130/168/171 129/167/172
f 33/2/173 52/3/174 131/169/175 130/168/176
f 52/3/177 53/4/178 132/170/179 131/169/180
f 53/4/181 48/1/182 129/167/183 132/170/184
f 40/9/185 41/10/186 134/172/187 133/171/188
f 41/10/189 60/11/190 135/173/191 134/172/192
f 60/11/193 61/12/194 136/174/195 135/173/196
f 61/12/197 40/9/198 133/171/199 136/174/200
