# This file uses meters as units for non-parametric coordinates.

mtllib WeaponPickUp.mtl
g default
v -31.178882 -42.906119 -18.755569
v -32.909240 -42.442440 -18.753156
v -34.175958 -41.175685 -18.751499
v -34.639637 -39.445251 -18.750748
v -31.121562 -42.906119 22.841132
v -34.582317 -39.445251 22.845802
v -34.118638 -41.175685 22.845350
v -32.851883 -42.442440 22.843391
v -31.178882 40.908228 -18.755569
v -34.639637 37.447058 -18.750748
v -34.175958 39.178246 -18.751499
v -32.909240 40.444850 -18.753156
v -31.121562 40.908228 22.841132
v -32.851883 40.444850 22.843391
v -34.118638 39.178246 22.845350
v -34.582317 37.447058 22.845802
v 34.582279 37.447058 -18.846105
v 31.121562 40.908228 -18.841435
v 32.851883 40.444850 -18.843843
v 34.118676 39.178246 -18.845500
v 34.639599 37.447058 22.750746
v 34.176033 39.178246 22.751198
v 32.909240 40.444850 22.753156
v 31.178882 40.908228 22.755416
v 31.121562 -42.906119 -18.841435
v 34.582279 -39.445251 -18.846105
v 34.118676 -41.175685 -18.845500
v 32.851883 -42.442440 -18.843843
v 31.178882 -42.906119 22.755416
v 32.909240 -42.442440 22.753156
v 34.176033 -41.175685 22.751198
v 34.639599 -39.445251 22.750746
v -34.635494 -39.445251 -17.088358
v -34.171815 -41.175685 -17.088960
v -32.905098 -42.442440 -17.090616
v -31.174701 -42.906119 -17.093023
v 31.125742 -42.906119 -17.178888
v 32.856063 -42.442440 -17.181607
v 34.122819 -41.175685 -17.183111
v 34.586422 -39.445251 -17.183714
v 34.586422 37.447058 -17.183714
v 34.122819 39.178246 -17.183110
v 32.856063 40.444850 -17.181607
v 31.125742 40.908228 -17.178892
v -31.174701 40.908228 -17.093028
v -32.905098 40.444850 -17.090616
v -34.171815 39.178246 -17.088960
v -34.635494 37.447058 -17.088358
v -31.124123 -42.906119 20.995458
v -32.854482 -42.442440 20.997866
v -34.121202 -41.175685 20.999674
v -34.584840 -39.445251 21.000126
v -34.584840 37.447058 21.000126
v -34.121202 39.178246 20.999674
v -32.854482 40.444850 20.997866
v -31.124123 40.908228 20.995455
v 31.176321 40.908228 20.909439
v 32.906677 40.444850 20.907180
v 34.173475 39.178246 20.905220
v 34.637073 37.447058 20.904768
v 34.637073 -39.445251 20.904768
v 34.173475 -41.175685 20.905220
v 32.906677 -42.442440 20.907179
v 31.176321 -42.906119 20.909444
v -31.178392 -42.906119 -18.394777
v -32.908748 -42.442440 -18.392367
v -34.175506 -41.175685 -18.390710
v -34.639145 -39.445251 -18.389956
v -34.639145 37.447058 -18.389956
v -34.175506 39.178246 -18.390710
v -32.908748 40.444850 -18.392367
v -31.178392 40.908228 -18.394777
v 31.122052 40.908228 -18.480493
v 32.852373 40.444850 -18.482903
v 34.119130 39.178246 -18.484560
v 34.582769 37.447058 -18.485163
v 34.582769 -39.445251 -18.485163
v 34.119130 -41.175685 -18.484560
v 32.852373 -42.442440 -18.482903
v 31.122052 -42.906119 -18.480493
v 34.175355 -41.175835 22.276372
v 34.638996 -39.445251 22.275920
v 34.638996 37.447058 22.275920
v 34.175355 39.178246 22.276372
v 32.908562 40.444850 22.278481
v 31.178241 40.908228 22.280590
v -31.122202 40.908228 22.366456
v -32.852596 40.444850 22.369017
v -34.119316 39.178246 22.370825
v -34.582960 37.447058 22.371277
v -34.582960 -39.445251 22.371277
v -34.119316 -41.175835 22.370825
v -32.852596 -42.442440 22.369017
v -31.122202 -42.906119 22.366456
v 31.178241 -42.906119 22.280590
v 32.908562 -42.442440 22.278481
v -34.639561 -39.445251 -18.695309
v -34.175918 -41.175835 -18.696063
v -32.909165 -42.442440 -18.697569
v -31.178806 -42.906119 -18.700130
v 31.121600 -42.906119 -18.785996
v 32.851958 -42.442440 -18.788407
v 34.118714 -41.175835 -18.790214
v 34.582395 -39.445401 -18.790817
v 34.582395 37.447058 -18.790817
v 34.118714 39.178246 -18.790214
v 32.851958 40.444850 -18.788407
v 31.121600 40.908228 -18.785996
v -31.178806 40.908228 -18.700130
v -32.909165 40.444850 -18.697569
v -34.175918 39.178246 -18.696063
v -34.639561 37.447058 -18.695309
v -28.813825 -33.037508 22.837881
v 28.871104 -33.037508 22.758669
v 28.871104 31.039316 22.758669
v -28.813825 31.039316 22.837881
v -28.871144 -33.037508 -18.758695
v 28.813785 -33.037508 -18.838159
v -28.871144 31.039316 -18.758695
v 28.813785 31.039316 -18.838159
v -28.820008 -33.037508 18.259179
v 28.864921 -33.037508 18.180336
v 28.864921 31.039316 18.180336
v -28.820008 31.039316 18.259179
v -28.864940 -33.037508 -14.180360
v 28.819987 -33.037508 -14.259453
v -28.864940 31.039316 -14.180360
v 28.819987 31.039316 -14.259453
vt 0.158975 0.508180
vt 0.169897 0.713541
vt 0.044261 0.720175
vt 0.033489 0.514752
vt 0.133713 0.014028
vt 0.144235 0.219393
vt 0.018681 0.225822
vt 0.008154 0.020457
vt 0.500595 0.327000
vt 0.710269 0.326482
vt 0.710270 0.559328
vt 0.500596 0.558809
vt 0.198486 0.018194
vt 0.212651 0.004468
vt 0.463836 0.008276
vt 0.477573 0.022443
vt 0.184294 0.985124
vt 0.184606 0.991039
vt 0.058862 0.997680
vt 0.058551 0.991765
vt 0.133108 0.002217
vt 0.133410 0.008123
vt 0.007851 0.014551
vt 0.007549 0.008646
vt 0.726916 0.559347
vt 0.726914 0.326462
vt 0.170217 0.719450
vt 0.044567 0.726085
vt 0.209355 0.349262
vt 0.170538 0.725361
vt 0.044872 0.731995
vt 0.484037 0.326995
vt 0.170858 0.731275
vt 0.045178 0.737910
vt 0.158149 0.490566
vt 0.158453 0.496472
vt 0.032885 0.502937
vt 0.032582 0.497027
vt 0.158758 0.502373
vt 0.033187 0.508845
vt 0.500555 0.575447
vt 0.710242 0.575976
vt 0.144539 0.225298
vt 0.018982 0.231727
vt 0.144841 0.231203
vt 0.019285 0.237633
vt 0.145143 0.237107
vt 0.019586 0.243540
vt 0.470752 0.010314
vt 0.475859 0.015414
vt 0.720452 0.305815
vt 0.732897 0.293395
vt 0.731222 0.299609
vt 0.726676 0.304165
vt 0.458526 0.345429
vt 0.472622 0.331693
vt 0.470663 0.338584
vt 0.465555 0.343702
vt 0.721041 0.002876
vt 0.727264 0.004543
vt 0.731837 0.009096
vt 0.733517 0.015350
vt 0.194161 0.328123
vt 0.207892 0.342220
vt 0.200968 0.340161
vt 0.195967 0.335041
vt 0.484037 0.015344
vt 0.485721 0.009090
vt 0.490288 0.004534
vt 0.496513 0.002869
vt 0.200569 0.011265
vt 0.205713 0.006267
vt 0.497092 0.305813
vt 0.490868 0.304162
vt 0.486321 0.299607
vt 0.484648 0.293391
vt 0.477796 0.022445
vt 0.476087 0.015359
vt 0.477346 0.015073
vt 0.479023 0.022457
vt 0.476022 0.015246
vt 0.470858 0.010136
vt 0.471469 0.009103
vt 0.476911 0.014317
vt 0.463905 0.008053
vt 0.464290 0.006831
vt 0.463840 0.008053
vt 0.212652 0.004244
vt 0.212661 0.003012
vt 0.463858 0.006821
vt 0.205609 0.006081
vt 0.205000 0.004999
vt 0.200392 0.011152
vt 0.199355 0.010498
vt 0.198262 0.018123
vt 0.197029 0.017726
vt 0.198263 0.018190
vt 0.193938 0.328121
vt 0.192706 0.328112
vt 0.197031 0.018173
vt 0.195782 0.335146
vt 0.194702 0.335755
vt 0.200856 0.340339
vt 0.200205 0.341375
vt 0.207823 0.342444
vt 0.207430 0.343675
vt 0.207889 0.342443
vt 0.458524 0.345652
vt 0.458517 0.346879
vt 0.207874 0.343672
vt 0.465609 0.343930
vt 0.465897 0.345186
vt 0.465724 0.343866
vt 0.470847 0.338687
vt 0.471912 0.339288
vt 0.466656 0.344759
vt 0.472845 0.331698
vt 0.474073 0.331726
vt 0.003331 0.014782
vt 0.003632 0.020687
vt 0.002067 0.020767
vt 0.001767 0.014862
vt 0.003029 0.008877
vt 0.001464 0.008958
vt 0.054024 0.992004
vt 0.054334 0.997925
vt 0.052766 0.998008
vt 0.052457 0.992087
vt 0.040651 0.738148
vt 0.039084 0.738230
vt 0.040347 0.732227
vt 0.038780 0.732307
vt 0.040046 0.726315
vt 0.038481 0.726395
vt 0.039741 0.720412
vt 0.484039 0.558814
vt 0.038483 0.726397
vt 0.038176 0.720494
vt 0.028968 0.514989
vt 0.027403 0.515071
vt 0.028665 0.509076
vt 0.028974 0.514983
vt 0.027410 0.515064
vt 0.027099 0.509156
vt 0.028365 0.503166
vt 0.026800 0.503245
vt 0.028062 0.497259
vt 0.026497 0.497339
vt 0.015066 0.243771
vt 0.013501 0.243851
vt 0.014763 0.237861
vt 0.015061 0.243771
vt 0.013493 0.243850
vt 0.013197 0.237940
vt 0.014463 0.231955
vt 0.012899 0.232035
vt 0.014161 0.226053
vt 0.012596 0.226134
vt 0.003635 0.020689
vt 0.002070 0.020769
vt 0.137702 0.007898
vt 0.138004 0.013803
vt 0.137400 0.001992
vt 0.188591 0.984896
vt 0.188905 0.990814
vt 0.175155 0.731048
vt 0.174837 0.725132
vt 0.174515 0.719219
vt 0.174189 0.713319
vt 0.174510 0.719222
vt 0.163265 0.507958
vt 0.418761 0.349263
vt 0.163017 0.502185
vt 0.163229 0.508036
vt 0.162743 0.496265
vt 0.162439 0.490347
vt 0.149433 0.236887
vt 0.435401 0.365881
vt 0.149131 0.230981
vt 0.149432 0.236887
vt 0.148828 0.225075
vt 0.148525 0.219167
vt 0.138003 0.013802
vt 0.435409 0.598489
vt 0.209342 0.365882
vt 0.418774 0.365882
vt 0.418786 0.598490
vt 0.209330 0.598492
vt 0.505391 0.270275
vt 0.712154 0.270277
vt 0.192706 0.598491
vt 0.504889 0.038462
vt 0.192714 0.365881
vt 0.712665 0.038468
vt 0.453951 0.047880
vt 0.221478 0.044522
vt 0.449799 0.305585
vt 0.217738 0.302640
vt 0.500553 0.310363
vt 0.710240 0.309834
vt 0.418792 0.615110
vt 0.209325 0.615114
vn 0.007241 0.999974 -0.000010
vn -0.007241 0.999974 0.000010
vn -0.007241 0.999974 0.000010
vn 0.007241 0.999974 -0.000010
vn -0.007241 -0.999974 0.000010
vn 0.007241 -0.999974 -0.000010
vn 0.007241 -0.999974 -0.000010
vn -0.007241 -0.999974 0.000010
vn -0.013630 -0.000088 0.999907
vn 0.016381 -0.000088 0.999866
vn 0.016382 0.000088 0.999866
vn -0.013630 0.000088 0.999907
vn 0.023169 -0.000145 -0.999732
vn -0.001195 -0.025216 -0.999681
vn -0.001561 -0.025216 -0.999681
vn -0.025924 -0.000145 -0.999664
vn -0.999982 -0.005897 0.001379
vn -0.866028 -0.499995 0.001193
vn -0.866027 -0.499997 0.001193
vn -0.999982 -0.005897 0.001379
vn -0.500002 -0.866024 0.000689
vn -0.500005 -0.866022 0.000689
vn -0.499995 0.866028 0.000689
vn -0.499999 0.866026 0.000689
vn -0.866023 0.500003 0.001193
vn -0.866022 0.500005 0.001193
vn -0.999982 0.005897 0.001379
vn -0.999982 0.005897 0.001379
vn 0.999982 0.005897 -0.001378
vn 0.866022 0.500005 -0.001193
vn 0.866024 0.500001 -0.001194
vn 0.999982 0.005897 -0.001378
vn 0.499994 0.866029 -0.000689
vn 0.499994 0.866029 -0.000689
vn 0.500000 -0.866025 -0.000689
vn 0.500001 -0.866025 -0.000689
vn 0.866025 -0.499999 -0.001194
vn 0.866028 -0.499994 -0.001194
vn 0.999982 -0.005897 -0.001378
vn 0.999982 -0.005896 -0.001378
vn -0.454632 -0.786466 -0.418069
vn -0.773106 -0.445988 -0.451002
vn 0.001263 -0.015416 0.999880
vn -0.013630 -0.000088 0.999907
vn -0.665760 -0.384862 0.639253
vn -0.398301 -0.691372 0.602794
vn -0.001561 0.025216 -0.999681
vn -0.025924 0.000145 -0.999664
vn -0.773104 0.445995 -0.450997
vn -0.454627 0.786471 -0.418065
vn 0.001263 0.015416 0.999880
vn -0.398298 0.691379 0.602789
vn -0.665760 0.384869 0.639248
vn -0.013630 0.000088 0.999907
vn 0.023169 0.000145 -0.999732
vn -0.001195 0.025216 -0.999681
vn 0.453474 0.786451 -0.419353
vn 0.771873 0.445981 -0.453115
vn 0.016382 0.000088 0.999866
vn 0.667571 0.384913 0.637331
vn 0.399992 0.691378 0.601667
vn 0.001487 0.015416 0.999880
vn 0.771876 -0.445974 -0.453117
vn 0.453479 -0.786445 -0.419358
vn 0.001487 -0.015416 0.999880
vn 0.399995 -0.691372 0.601672
vn 0.667571 -0.384906 0.637335
vn 0.016381 -0.000088 0.999866
vn -0.999982 -0.005897 0.001363
vn -0.865974 -0.500087 0.001317
vn -0.866081 -0.499898 0.002272
vn -0.999979 -0.005896 0.002532
vn -0.499995 -0.866028 0.000658
vn -0.500150 -0.865937 0.001368
vn -0.007239 -0.999974 -0.000075
vn -0.007251 -0.999974 -0.000011
vn 0.007241 -0.999974 -0.000094
vn 0.007230 -0.999974 -0.000053
vn 0.499998 -0.866026 -0.000819
vn 0.499862 -0.866104 -0.001368
vn 0.865956 -0.500118 -0.001200
vn 0.865989 -0.500057 -0.002231
vn 0.999982 -0.005903 -0.001359
vn 0.999979 -0.005897 -0.002506
vn 0.999982 0.005897 -0.001354
vn 0.999979 0.005898 -0.002507
vn 0.866066 0.499929 -0.000940
vn 0.866028 0.499991 -0.002177
vn 0.499918 0.866073 -0.000435
vn 0.499767 0.866159 -0.001258
vn 0.007236 0.999974 -0.000088
vn 0.007226 0.999974 -0.000052
vn -0.007235 0.999974 -0.000062
vn -0.007247 0.999974 -0.000016
vn -0.499912 0.866076 0.000862
vn -0.500056 0.865992 0.001209
vn -0.866077 0.499910 0.001205
vn -0.866119 0.499834 0.002146
vn -0.999982 0.005897 0.001364
vn -0.999979 0.005896 0.002530
vn -0.500005 -0.866022 0.000597
vn -0.007240 -0.999974 -0.000020
vn -0.866022 -0.500005 0.001149
vn -0.999982 -0.005897 0.001367
vn -0.999982 0.005897 0.001367
vn -0.866077 0.499909 0.001195
vn -0.499923 0.866070 0.000659
vn -0.007236 0.999974 -0.000015
vn 0.007238 0.999974 -0.000031
vn 0.499907 0.866079 -0.000628
vn 0.866068 0.499925 -0.001170
vn 0.999982 0.005896 -0.001368
vn 0.999982 -0.005896 -0.001368
vn 0.866012 -0.500022 -0.001203
vn 0.499988 -0.866032 -0.000668
vn 0.007242 -0.999974 -0.000035
vn 0.023169 -0.000145 -0.999732
vn -0.025924 -0.000145 -0.999664
vn -0.025924 0.000145 -0.999664
vn 0.023169 0.000145 -0.999732
vn 0.016381 -0.000088 0.999866
vn -0.013630 -0.000088 0.999907
vn 0.016382 0.000088 0.999866
vn -0.013630 0.000088 0.999907
vn -0.025924 -0.000145 -0.999664
vn 0.023169 -0.000145 -0.999732
vn -0.025924 0.000145 -0.999664
vn 0.023169 0.000145 -0.999732
vn -0.013630 -0.000088 0.999907
vn 0.016381 -0.000088 0.999866
vn 0.016381 -0.000088 0.999866
vn -0.013630 -0.000088 0.999907
vn 0.016381 -0.000088 0.999866
vn 0.016382 0.000088 0.999866
vn 0.016382 0.000088 0.999866
vn 0.016381 -0.000088 0.999866
vn 0.016382 0.000088 0.999866
vn -0.013630 0.000088 0.999907
vn -0.013630 0.000088 0.999907
vn 0.016382 0.000088 0.999866
vn -0.013630 0.000088 0.999907
vn -0.013630 -0.000088 0.999907
vn -0.013630 -0.000088 0.999907
vn -0.013630 0.000088 0.999907
vn 0.023169 -0.000145 -0.999732
vn -0.025924 -0.000145 -0.999664
vn -0.025924 -0.000145 -0.999664
vn 0.023169 -0.000145 -0.999732
vn -0.025924 -0.000145 -0.999664
vn -0.025924 0.000145 -0.999664
vn -0.025924 0.000145 -0.999664
vn -0.025924 -0.000145 -0.999664
vn -0.025924 0.000145 -0.999664
vn 0.023169 0.000145 -0.999732
vn 0.023169 0.000145 -0.999732
vn -0.025924 0.000145 -0.999664
vn 0.023169 0.000145 -0.999732
vn 0.023169 -0.000145 -0.999732
vn 0.023169 -0.000145 -0.999732
vn 0.023169 0.000145 -0.999732
vn -0.999999 0.000000 0.001330
vn -0.999999 0.000000 0.001330
vn -0.999999 0.000000 0.001330
vn -0.999999 0.000000 0.001330
vn 0.999999 0.000000 -0.001330
vn 0.999999 0.000000 -0.001330
vn 0.999999 0.000000 -0.001330
vn 0.999999 0.000000 -0.001330
s 1
g autoUnwrapFaces pCube32
usemtl unwrapChekcerShaderSG
f 44/1/1 45/2/2 56/3/3 57/4/4
f 36/5/5 37/6/6 64/7/7 49/8/8
s off
f 121/9/9 122/10/10 123/11/11 124/12/12
s 1
f 26/13/13 25/14/14 1/15/15 4/16/16
f 33/17/17 34/18/18 51/19/19 52/20/20
f 34/21/18 35/22/21 50/23/22 51/24/19
f 35/22/21 36/5/5 49/8/8 50/23/22
f 45/2/2 46/27/23 55/28/24 56/3/3
f 46/27/23 47/30/25 54/31/26 55/28/24
f 47/30/25 48/33/27 53/34/28 54/31/26
f 41/35/29 42/36/30 59/37/31 60/38/32
f 42/36/30 43/39/33 58/40/34 59/37/31
f 43/39/33 44/1/1 57/4/4 58/40/34
f 37/6/6 38/43/35 63/44/36 64/7/7
f 38/43/35 39/45/37 62/46/38 63/44/36
f 39/45/37 40/47/39 61/48/40 62/46/38
f 1/15/15 2/49/41 3/50/42 4/16/16
f 5/51/43 6/52/44 7/53/45 8/54/46
f 9/55/47 10/56/48 11/57/49 12/58/50
f 13/59/51 14/60/52 15/61/53 16/62/54
f 17/63/55 18/64/56 19/65/57 20/66/58
f 21/67/59 22/68/60 23/69/61 24/70/62
f 25/14/14 26/13/13 27/71/63 28/72/64
f 29/73/65 30/74/66 31/75/67 32/76/68
f 97/77/69 98/78/70 67/79/71 68/80/72
f 98/81/70 99/82/73 66/83/74 67/84/71
f 99/82/73 100/85/75 65/86/76 66/83/74
f 100/87/75 101/88/77 80/89/78 65/90/76
f 101/88/77 102/91/79 79/92/80 80/89/78
f 102/91/79 103/93/81 78/94/82 79/92/80
f 103/93/81 104/95/83 77/96/84 78/94/82
f 104/97/83 105/98/85 76/99/86 77/100/84
f 105/98/85 106/101/87 75/102/88 76/99/86
f 106/101/87 107/103/89 74/104/90 75/102/88
f 107/103/89 108/105/91 73/106/92 74/104/90
f 108/107/91 109/108/93 72/109/94 73/110/92
f 109/108/93 110/111/95 71/112/96 72/109/94
f 110/113/95 111/114/97 70/115/98 71/116/96
f 111/114/97 112/117/99 69/118/100 70/115/98
f 112/117/99 97/77/69 68/80/72 69/118/100
f 93/119/101 94/120/102 5/121/43 8/122/46
f 92/123/103 93/119/101 8/122/46 7/124/45
f 91/125/104 92/126/103 7/127/45 6/128/44
f 90/129/105 91/125/104 6/128/44 16/130/54
f 89/131/106 90/129/105 16/130/54 15/132/53
f 88/133/107 89/131/106 15/132/53 14/134/52
f 87/135/108 88/133/107 14/137/52 13/138/51
f 86/139/109 87/135/108 13/138/51 24/140/62
f 85/141/110 86/142/109 24/143/62 23/144/61
f 84/145/111 85/141/110 23/144/61 22/146/60
f 83/147/112 84/145/111 22/146/60 21/148/59
f 82/149/113 83/147/112 21/148/59 32/150/68
f 81/151/114 82/152/113 32/153/68 31/154/67
f 96/155/115 81/151/114 31/154/67 30/156/66
f 95/157/116 96/155/115 30/156/66 29/158/65
f 94/159/102 95/157/116 29/158/65 5/160/43
f 66/161/74 65/162/76 36/5/5 35/22/21
f 67/163/71 66/161/74 35/22/21 34/21/18
f 68/164/72 67/165/71 34/18/18 33/17/17
f 69/166/100 68/164/72 33/17/17 48/33/27
f 70/167/98 69/166/100 48/33/27 47/30/25
f 71/168/96 70/167/98 47/30/25 46/27/23
f 72/169/94 71/170/96 46/27/23 45/2/2
f 73/171/92 72/169/94 45/2/2 44/1/1
f 74/173/90 73/174/92 44/1/1 43/39/33
f 75/175/88 74/173/90 43/39/33 42/36/30
f 76/176/86 75/175/88 42/36/30 41/35/29
f 77/177/84 76/176/86 41/35/29 40/47/39
f 78/179/82 77/180/84 40/47/39 39/45/37
f 79/181/80 78/179/82 39/45/37 38/43/35
f 80/182/78 79/181/80 38/43/35 37/6/6
f 65/183/76 80/182/78 37/6/6 36/5/5
f 62/46/38 61/48/40 82/152/113 81/151/114
f 61/48/40 60/38/32 83/147/112 82/149/113
f 60/38/32 59/37/31 84/145/111 83/147/112
f 59/37/31 58/40/34 85/141/110 84/145/111
f 58/40/34 57/4/4 86/142/109 85/141/110
f 57/4/4 56/3/3 87/135/108 86/139/109
f 56/3/3 55/28/24 88/133/107 87/135/108
f 55/28/24 54/31/26 89/131/106 88/133/107
f 54/31/26 53/34/28 90/129/105 89/131/106
f 53/34/28 52/20/20 91/125/104 90/129/105
f 52/20/20 51/19/19 92/126/103 91/125/104
f 51/24/19 50/23/22 93/119/101 92/123/103
f 50/23/22 49/8/8 94/120/102 93/119/101
f 49/8/8 64/7/7 95/157/116 94/159/102
f 64/7/7 63/44/36 96/155/115 95/157/116
f 63/44/36 62/46/38 81/151/114 96/155/115
f 4/16/16 3/50/42 98/78/70 97/77/69
f 3/50/42 2/49/41 99/82/73 98/81/70
f 2/49/41 1/15/15 100/85/75 99/82/73
f 25/14/14 101/88/77 100/87/75 1/15/15
f 25/14/14 28/72/64 102/91/79 101/88/77
f 28/72/64 27/71/63 103/93/81 102/91/79
f 27/71/63 26/13/13 104/95/83 103/93/81
f 17/63/55 105/98/85 104/97/83 26/13/13
f 17/63/55 20/66/58 106/101/87 105/98/85
f 20/66/58 19/65/57 107/103/89 106/101/87
f 19/65/57 18/64/56 108/105/91 107/103/89
f 9/55/47 109/108/93 108/107/91 18/64/56
f 9/55/47 12/58/50 110/111/95 109/108/93
f 12/58/50 11/57/49 111/114/97 110/113/95
f 11/57/49 10/56/48 112/117/99 111/114/97
f 4/16/16 97/77/69 112/117/99 10/56/48
f 17/63/55 10/56/48 9/55/47 18/64/56
s off
f 126/185/117 125/186/118 127/187/119 128/188/120
s 1
f 16/62/54 21/67/59 24/70/62 13/59/51
f 6/52/44 5/51/43 29/73/65 32/76/68
f 6/52/44 32/76/68 114/189/121 113/190/122
f 32/76/68 21/67/59 115/192/123 114/189/121
f 21/67/59 16/62/54 116/194/124 115/192/123
f 16/62/54 6/52/44 113/190/122 116/194/124
f 26/13/13 4/16/16 117/195/125 118/196/126
f 4/16/16 10/56/48 119/197/127 117/195/125
f 10/56/48 17/63/55 120/198/128 119/197/127
f 17/63/55 26/13/13 118/196/126 120/198/128
s off
f 113/199/129 114/200/130 122/10/131 121/9/132
f 114/26/133 115/25/134 123/11/135 122/10/136
f 115/42/137 116/41/138 124/12/139 123/11/140
f 116/136/141 113/32/142 121/9/143 124/12/144
f 118/29/145 117/172/146 125/186/147 126/185/148
f 117/178/149 119/184/150 127/187/151 125/186/152
f 119/201/153 120/202/154 128/188/155 127/187/156
f 120/191/157 118/193/158 126/185/159 128/188/160
f 33/17/161 52/20/162 53/34/163 48/33/164
f 41/35/165 60/38/166 61/48/167 40/47/168
