# This file uses meters as units for non-parametric coordinates.

mtllib hay_OBJ.mtl
g default
v -283.703461 0.000000 285.299835
v -226.962189 0.000000 285.299835
v -226.962189 0.000000 228.239502
v -283.703461 0.000000 228.239502
v -170.221878 0.000000 285.299835
v -170.221878 0.000000 228.239502
v -113.481575 0.000000 285.299835
v -113.481575 0.000000 228.239502
v -56.740311 0.000000 285.299835
v -56.740311 0.000000 228.239502
v 0.000000 0.000000 285.299835
v 0.000000 0.022997 228.239502
v 56.740311 0.000000 285.299835
v 56.740311 0.202185 228.239502
v 113.481575 0.000000 285.299835
v 113.481575 0.022997 228.239502
v 170.221878 0.000000 285.299835
v 170.221878 0.000000 228.239502
v 226.962189 0.000000 285.299835
v 226.962189 0.000000 228.239502
v 283.703461 0.000000 285.299835
v 283.703461 0.000000 228.239502
v -226.962189 0.000000 171.180099
v -283.703461 0.000000 171.180099
v -170.221878 0.000000 171.180099
v -113.481575 0.000000 171.180099
v -56.740311 1.424880 171.180099
v 0.000000 5.635319 171.180099
v 56.740311 5.050802 171.180099
v 113.481575 2.950373 171.180099
v 170.221878 0.593141 171.180099
v 226.962189 0.000000 171.180099
v 283.703461 0.000000 171.180099
v -226.962189 0.000000 114.119751
v -283.703461 0.000000 114.119751
v -170.221878 0.000000 114.119751
v -113.481575 5.669815 114.119751
v -56.740311 24.976122 114.119751
v 0.000000 38.245617 114.119751
v 56.740311 32.434944 114.119751
v 113.481575 13.541630 114.119751
v 170.221878 2.988702 114.119751
v 226.962189 0.031621 114.119751
v 283.703461 0.000000 114.119751
v -226.962189 0.000000 57.060356
v -283.703461 0.000000 57.060356
v -170.221878 0.938102 57.060356
v -113.481575 22.011375 57.060356
v -56.740311 56.014927 57.060356
v 0.000000 75.931633 57.060356
v 56.740311 65.558846 57.060356
v 113.481575 32.721451 57.060356
v 170.221878 5.236698 57.060356
v 226.962189 0.230932 57.060356
v 283.703461 0.000000 57.060356
v -226.962189 0.000000 0.000000
v -283.703461 0.000000 0.000000
v -170.221878 2.833470 0.000000
v -113.481575 29.817074 0.000000
v -56.740311 68.321411 0.000000
v 0.000000 90.287750 0.000000
v 56.740311 76.066742 0.000000
v 113.481575 38.650944 0.000000
v 170.221878 5.920869 0.000000
v 226.962189 0.031621 0.000000
v 283.703461 0.000000 0.000000
v -226.962189 0.000000 -57.060356
v -283.703461 0.000000 -57.060356
v -170.221878 0.938102 -57.060356
v -113.481575 21.599340 -57.060356
v -56.740311 51.599434 -57.060356
v 0.000000 68.108681 -57.060356
v 56.740311 55.943066 -57.060356
v 113.481575 25.183098 -57.060356
v 170.221878 1.544658 -57.060356
v 226.962189 0.000000 -57.060356
v 283.703461 0.000000 -57.060356
v -226.962189 0.000000 -114.119751
v -283.703461 0.000000 -114.119751
v -170.221878 0.000000 -114.119751
v -113.481575 5.618071 -114.119751
v -56.740311 21.354992 -114.119751
v 0.000000 29.402161 -114.119751
v 56.740311 21.726784 -114.119751
v 113.481575 5.658316 -114.119751
v 170.221878 0.000000 -114.119751
v 226.962189 0.000000 -114.119751
v 283.703461 0.000000 -114.119751
v -226.962189 0.000000 -171.180099
v -283.703461 0.000000 -171.180099
v -170.221878 0.000000 -171.180099
v -113.481575 0.000000 -171.180099
v -56.740311 0.819282 -171.180099
v 0.000000 2.594872 -171.180099
v 56.740311 0.819282 -171.180099
v 113.481575 0.000000 -171.180099
v 170.221878 0.000000 -171.180099
v 226.962189 0.000000 -171.180099
v 283.703461 0.000000 -171.180099
v -226.962189 0.000000 -228.239502
v -283.703461 0.000000 -228.239502
v -170.221878 0.000000 -228.239502
v -113.481575 0.000000 -228.239502
v -56.740311 0.000000 -228.239502
v 0.000000 0.000000 -228.239502
v 56.740311 0.000000 -228.239502
v 113.481575 0.000000 -228.239502
v 170.221878 0.000000 -228.239502
v 226.962189 0.000000 -228.239502
v 283.703461 0.000000 -228.239502
v -226.962189 0.000000 -285.299835
v -283.703461 0.000000 -285.299835
v -170.221878 0.000000 -285.299835
v -113.481575 0.000000 -285.299835
v -56.740311 0.000000 -285.299835
v 0.000000 0.000000 -285.299835
v 56.740311 0.000000 -285.299835
v 113.481575 0.000000 -285.299835
v 170.221878 0.000000 -285.299835
v 226.962189 0.000000 -285.299835
v 283.703461 0.000000 -285.299835
vt 0.010000 0.984500
vt 0.010000 0.887100
vt 0.108000 0.887100
vt 0.108000 0.984500
vt 0.010000 0.789600
vt 0.108000 0.789600
vt 0.010000 0.692200
vt 0.108000 0.692200
vt 0.010000 0.594700
vt 0.108000 0.594700
vt 0.010000 0.497300
vt 0.108000 0.497300
vt 0.010000 0.399800
vt 0.108000 0.399800
vt 0.010000 0.302400
vt 0.108000 0.302400
vt 0.010000 0.204900
vt 0.108000 0.204900
vt 0.010000 0.107500
vt 0.108000 0.107500
vt 0.010000 0.010000
vt 0.108000 0.010000
vt 0.206000 0.887100
vt 0.206000 0.984500
vt 0.206000 0.789600
vt 0.206000 0.692200
vt 0.206000 0.594700
vt 0.206000 0.497300
vt 0.206000 0.399800
vt 0.206000 0.302400
vt 0.206000 0.204900
vt 0.206000 0.107500
vt 0.206000 0.010000
vt 0.304000 0.887100
vt 0.304000 0.984500
vt 0.304000 0.789600
vt 0.304000 0.692200
vt 0.304000 0.594700
vt 0.304000 0.497300
vt 0.304000 0.399800
vt 0.304000 0.302400
vt 0.304000 0.204900
vt 0.304000 0.107500
vt 0.304000 0.010000
vt 0.402000 0.887100
vt 0.402000 0.984500
vt 0.402000 0.789600
vt 0.402000 0.692200
vt 0.402000 0.594700
vt 0.402000 0.497300
vt 0.402000 0.399800
vt 0.402000 0.302400
vt 0.402000 0.204900
vt 0.402000 0.107500
vt 0.402000 0.010000
vt 0.500000 0.887100
vt 0.500000 0.984500
vt 0.500000 0.789600
vt 0.500000 0.692200
vt 0.500000 0.594700
vt 0.500000 0.497300
vt 0.500000 0.399800
vt 0.500000 0.302400
vt 0.500000 0.204900
vt 0.500000 0.107500
vt 0.500000 0.010000
vt 0.598000 0.887100
vt 0.598000 0.984500
vt 0.598000 0.789600
vt 0.598000 0.692200
vt 0.598000 0.594700
vt 0.598000 0.497300
vt 0.598000 0.399800
vt 0.598000 0.302400
vt 0.598000 0.204900
vt 0.598000 0.107500
vt 0.598000 0.010000
vt 0.696000 0.887100
vt 0.696000 0.984500
vt 0.696000 0.789600
vt 0.696000 0.692200
vt 0.696000 0.594700
vt 0.696000 0.497300
vt 0.696000 0.399800
vt 0.696000 0.302400
vt 0.696000 0.204900
vt 0.696000 0.107500
vt 0.696000 0.010000
vt 0.794000 0.887100
vt 0.794000 0.984500
vt 0.794000 0.789600
vt 0.794000 0.692200
vt 0.794000 0.594700
vt 0.794000 0.497300
vt 0.794000 0.399800
vt 0.794000 0.302400
vt 0.794000 0.204900
vt 0.794000 0.107500
vt 0.794000 0.010000
vt 0.892000 0.887100
vt 0.892000 0.984500
vt 0.892000 0.789600
vt 0.892000 0.692200
vt 0.892000 0.594700
vt 0.892000 0.497300
vt 0.892000 0.399800
vt 0.892000 0.302400
vt 0.892000 0.204900
vt 0.892000 0.107500
vt 0.892000 0.010000
vt 0.990000 0.887100
vt 0.990000 0.984500
vt 0.990000 0.789600
vt 0.990000 0.692200
vt 0.990000 0.594700
vt 0.990000 0.497300
vt 0.990000 0.399800
vt 0.990000 0.302400
vt 0.990000 0.204900
vt 0.990000 0.107500
vt 0.990000 0.010000
vn 0.000000 1.000000 0.000000
vn 0.000000 1.000000 0.000000
vn 0.000000 1.000000 0.000000
vn 0.000000 1.000000 0.000000
vn 0.000000 1.000000 0.000000
vn 0.000000 1.000000 0.000000
vn 0.000000 1.000000 0.000000
vn 0.000000 1.000000 0.000000
vn 0.000000 1.000000 0.000000
vn 0.000000 1.000000 0.000000
vn -0.003100 0.999990 0.003100
vn 0.000000 1.000000 0.000000
vn 0.000000 1.000000 0.000000
vn -0.000100 1.000000 0.000100
vn -0.009400 0.999720 0.021700
vn -0.003100 0.999990 0.003100
vn -0.000100 1.000000 0.000100
vn -0.000800 0.999999 0.001200
vn -0.000100 0.998871 0.047499
vn -0.009400 0.999720 0.021700
vn -0.000800 0.999999 0.001200
vn 0.000800 0.999996 0.002800
vn 0.004600 0.999209 0.039500
vn -0.000100 0.998871 0.047499
vn 0.000800 0.999996 0.002800
vn 0.000100 1.000000 0.000300
vn 0.006500 0.999756 0.021099
vn 0.004600 0.999209 0.039500
vn 0.000100 1.000000 0.000300
vn 0.000000 1.000000 0.000000
vn 0.001500 0.999991 0.003900
vn 0.006500 0.999756 0.021099
vn 0.000000 1.000000 0.000000
vn 0.000000 1.000000 0.000000
vn 0.000000 1.000000 0.000000
vn 0.001500 0.999991 0.003900
vn 0.000000 1.000000 0.000000
vn 0.000000 1.000000 0.000000
vn 0.000000 1.000000 0.000000
vn 0.000000 1.000000 0.000000
vn 0.000000 1.000000 0.000000
vn 0.000000 1.000000 0.000000
vn 0.000000 1.000000 0.000000
vn 0.000000 1.000000 0.000000
vn 0.000000 1.000000 0.000000
vn 0.000000 1.000000 0.000000
vn -0.012401 0.999846 0.012401
vn 0.000000 1.000000 0.000000
vn 0.000000 1.000000 0.000000
vn -0.003100 0.999990 0.003100
vn -0.049998 0.994953 0.086996
vn -0.012401 0.999846 0.012401
vn -0.003100 0.999990 0.003100
vn -0.009400 0.999720 0.021700
vn -0.061599 0.973780 0.218995
vn -0.049998 0.994953 0.086996
vn -0.009400 0.999720 0.021700
vn -0.000100 0.998871 0.047499
vn -0.011800 0.957735 0.287410
vn -0.061599 0.973780 0.218995
vn -0.000100 0.998871 0.047499
vn 0.004600 0.999209 0.039500
vn 0.055299 0.971191 0.231798
vn -0.011800 0.957735 0.287410
vn 0.004600 0.999209 0.039500
vn 0.006500 0.999756 0.021099
vn 0.052602 0.993237 0.103504
vn 0.055299 0.971191 0.231798
vn 0.006500 0.999756 0.021099
vn 0.001500 0.999991 0.003900
vn 0.026001 0.999321 0.026101
vn 0.052602 0.993237 0.103504
vn 0.001500 0.999991 0.003900
vn 0.000000 1.000000 0.000000
vn 0.004000 0.999991 0.001500
vn 0.026001 0.999321 0.026101
vn 0.000000 1.000000 0.000000
vn 0.000000 1.000000 0.000000
vn 0.000000 1.000000 0.000000
vn 0.004000 0.999991 0.001500
vn 0.000000 1.000000 0.000000
vn 0.000000 1.000000 0.000000
vn -0.002100 0.999996 0.002100
vn 0.000000 1.000000 0.000000
vn 0.000000 1.000000 0.000000
vn -0.012401 0.999846 0.012401
vn -0.082298 0.995772 0.040799
vn -0.002100 0.999996 0.002100
vn -0.012401 0.999846 0.012401
vn -0.049998 0.994953 0.086996
vn -0.218405 0.956420 0.193804
vn -0.082298 0.995772 0.040799
vn -0.049998 0.994953 0.086996
vn -0.061599 0.973780 0.218995
vn -0.231897 0.887190 0.398895
vn -0.218405 0.956420 0.193804
vn -0.061599 0.973780 0.218995
vn -0.011800 0.957735 0.287410
vn -0.033301 0.862526 0.504915
vn -0.231897 0.887190 0.398895
vn -0.011800 0.957735 0.287410
vn 0.055299 0.971191 0.231798
vn 0.207006 0.871526 0.444513
vn -0.033301 0.862526 0.504915
vn 0.055299 0.971191 0.231798
vn 0.052602 0.993237 0.103504
vn 0.242007 0.939428 0.242707
vn 0.207006 0.871526 0.444513
vn 0.052602 0.993237 0.103504
vn 0.026001 0.999321 0.026101
vn 0.104299 0.993095 0.053700
vn 0.242007 0.939428 0.242707
vn 0.026001 0.999321 0.026101
vn 0.004000 0.999991 0.001500
vn 0.021601 0.999744 0.006800
vn 0.104299 0.993095 0.053700
vn 0.004000 0.999991 0.001500
vn 0.000000 1.000000 0.000000
vn 0.000400 1.000000 0.000100
vn 0.021601 0.999744 0.006800
vn 0.000000 1.000000 0.000000
vn -0.002100 0.999996 0.002100
vn -0.012400 0.999914 0.004200
vn 0.000000 1.000000 0.000000
vn -0.002100 0.999996 0.002100
vn -0.082298 0.995772 0.040799
vn -0.194004 0.980422 0.033701
vn -0.012400 0.999914 0.004200
vn -0.082298 0.995772 0.040799
vn -0.218405 0.956420 0.193804
vn -0.408304 0.897309 0.167702
vn -0.194004 0.980422 0.033701
vn -0.218405 0.956420 0.193804
vn -0.231897 0.887190 0.398895
vn -0.387805 0.869711 0.305304
vn -0.408304 0.897309 0.167702
vn -0.231897 0.887190 0.398895
vn -0.033301 0.862526 0.504915
vn -0.054298 0.924870 0.376388
vn -0.387805 0.869711 0.305304
vn -0.033301 0.862526 0.504915
vn 0.207006 0.871526 0.444513
vn 0.324404 0.888112 0.325605
vn -0.054298 0.924870 0.376388
vn 0.207006 0.871526 0.444513
vn 0.242007 0.939428 0.242707
vn 0.445298 0.870696 0.208799
vn 0.324404 0.888112 0.325605
vn 0.242007 0.939428 0.242707
vn 0.104299 0.993095 0.053700
vn 0.235191 0.970265 0.057198
vn 0.445298 0.870696 0.208799
vn 0.104299 0.993095 0.053700
vn 0.021601 0.999744 0.006800
vn 0.041102 0.999143 0.004900
vn 0.235191 0.970265 0.057198
vn 0.021601 0.999744 0.006800
vn 0.000400 1.000000 0.000100
vn 0.003200 0.999995 0.000900
vn 0.041102 0.999143 0.004900
vn 0.000000 1.000000 0.000000
vn -0.012400 0.999914 0.004200
vn -0.020799 0.999775 -0.004200
vn 0.000000 1.000000 0.000000
vn -0.012400 0.999914 0.004200
vn -0.194004 0.980422 0.033701
vn -0.229208 0.973234 -0.016701
vn -0.020799 0.999775 -0.004200
vn -0.194004 0.980422 0.033701
vn -0.408304 0.897309 0.167702
vn -0.476615 0.878627 -0.029201
vn -0.229208 0.973234 -0.016701
vn -0.408304 0.897309 0.167702
vn -0.387805 0.869711 0.305304
vn -0.440388 0.896375 -0.050699
vn -0.476615 0.878627 -0.029201
vn -0.387805 0.869711 0.305304
vn -0.054298 0.924870 0.376388
vn -0.058299 0.996584 -0.058499
vn -0.440388 0.896375 -0.050699
vn -0.054298 0.924870 0.376388
vn 0.324404 0.888112 0.325605
vn 0.375594 0.925186 -0.054399
vn -0.058299 0.996584 -0.058499
vn 0.324404 0.888112 0.325605
vn 0.445298 0.870696 0.208799
vn 0.506230 0.861751 -0.033402
vn 0.375594 0.925186 -0.054399
vn 0.445298 0.870696 0.208799
vn 0.235191 0.970265 0.057198
vn 0.291711 0.956435 -0.011700
vn 0.506230 0.861751 -0.033402
vn 0.235191 0.970265 0.057198
vn 0.041102 0.999143 0.004900
vn 0.049997 0.998749 0.000000
vn 0.291711 0.956435 -0.011700
vn 0.041102 0.999143 0.004900
vn 0.003200 0.999995 0.000900
vn 0.001400 0.999999 -0.000900
vn 0.049997 0.998749 0.000000
vn 0.000000 1.000000 0.000000
vn -0.020799 0.999775 -0.004200
vn -0.006200 0.999979 -0.002100
vn 0.000000 1.000000 0.000000
vn -0.020799 0.999775 -0.004200
vn -0.229208 0.973234 -0.016701
vn -0.154504 0.986628 -0.051901
vn -0.006200 0.999979 -0.002100
vn -0.229208 0.973234 -0.016701
vn -0.476615 0.878627 -0.029201
vn -0.384386 0.899668 -0.206993
vn -0.154504 0.986628 -0.051901
vn -0.476615 0.878627 -0.029201
vn -0.440388 0.896375 -0.050699
vn -0.351988 0.866771 -0.353288
vn -0.384386 0.899668 -0.206993
vn -0.440388 0.896375 -0.050699
vn -0.058299 0.996584 -0.058499
vn -0.050400 0.896093 -0.440996
vn -0.351988 0.866771 -0.353288
vn -0.058299 0.996584 -0.058499
vn 0.375594 0.925186 -0.054399
vn 0.304082 0.869749 -0.388677
vn -0.050400 0.896093 -0.440996
vn 0.375594 0.925186 -0.054399
vn 0.506230 0.861751 -0.033402
vn 0.399508 0.886519 -0.233405
vn 0.304082 0.869749 -0.388677
vn 0.506230 0.861751 -0.033402
vn 0.291711 0.956435 -0.011700
vn 0.221403 0.973113 -0.063501
vn 0.399508 0.886519 -0.233405
vn 0.291711 0.956435 -0.011700
vn 0.049997 0.998749 0.000000
vn 0.023100 0.999685 -0.009800
vn 0.221403 0.973113 -0.063501
vn 0.049997 0.998749 0.000000
vn 0.001400 0.999999 -0.000900
vn 0.000100 1.000000 -0.000100
vn 0.023100 0.999685 -0.009800
vn 0.000000 1.000000 0.000000
vn -0.006200 0.999979 -0.002100
vn 0.000000 1.000000 0.000000
vn 0.000000 1.000000 0.000000
vn -0.006200 0.999979 -0.002100
vn -0.154504 0.986628 -0.051901
vn -0.039099 0.999064 -0.018499
vn 0.000000 1.000000 0.000000
vn -0.154504 0.986628 -0.051901
vn -0.384386 0.899668 -0.206993
vn -0.179602 0.967112 -0.180102
vn -0.039099 0.999064 -0.018499
vn -0.384386 0.899668 -0.206993
vn -0.351988 0.866771 -0.353288
vn -0.205093 0.900571 -0.383287
vn -0.179602 0.967112 -0.180102
vn -0.351988 0.866771 -0.353288
vn -0.050400 0.896093 -0.440996
vn -0.028800 0.879788 -0.474493
vn -0.205093 0.900571 -0.383287
vn -0.050400 0.896093 -0.440996
vn 0.304082 0.869749 -0.388677
vn 0.166090 0.898348 -0.406676
vn -0.028800 0.879788 -0.474493
vn 0.304082 0.869749 -0.388677
vn 0.399508 0.886519 -0.233405
vn 0.192605 0.956525 -0.219006
vn 0.166090 0.898348 -0.406676
vn 0.399508 0.886519 -0.233405
vn 0.221403 0.973113 -0.063501
vn 0.087297 0.994866 -0.051198
vn 0.192605 0.956525 -0.219006
vn 0.221403 0.973113 -0.063501
vn 0.023100 0.999685 -0.009800
vn 0.003400 0.999988 -0.003400
vn 0.087297 0.994866 -0.051198
vn 0.023100 0.999685 -0.009800
vn 0.000100 1.000000 -0.000100
vn 0.000000 1.000000 0.000000
vn 0.003400 0.999988 -0.003400
vn 0.000000 1.000000 0.000000
vn 0.000000 1.000000 0.000000
vn 0.000000 1.000000 0.000000
vn 0.000000 1.000000 0.000000
vn 0.000000 1.000000 0.000000
vn -0.039099 0.999064 -0.018499
vn 0.000000 1.000000 0.000000
vn 0.000000 1.000000 0.000000
vn -0.039099 0.999064 -0.018499
vn -0.179602 0.967112 -0.180102
vn -0.017700 0.999102 -0.038500
vn 0.000000 1.000000 0.000000
vn -0.179602 0.967112 -0.180102
vn -0.205093 0.900571 -0.383287
vn -0.049899 0.987182 -0.151597
vn -0.017700 0.999102 -0.038500
vn -0.205093 0.900571 -0.383287
vn -0.028800 0.879788 -0.474493
vn -0.016300 0.974221 -0.225005
vn -0.049899 0.987182 -0.151597
vn -0.028800 0.879788 -0.474493
vn 0.166090 0.898348 -0.406676
vn 0.032098 0.981048 -0.191090
vn -0.016300 0.974221 -0.225005
vn 0.166090 0.898348 -0.406676
vn 0.192605 0.956525 -0.219006
vn 0.039499 0.995874 -0.081698
vn 0.032098 0.981048 -0.191090
vn 0.192605 0.956525 -0.219006
vn 0.087297 0.994866 -0.051198
vn 0.012401 0.999846 -0.012401
vn 0.039499 0.995874 -0.081698
vn 0.087297 0.994866 -0.051198
vn 0.003400 0.999988 -0.003400
vn 0.000000 1.000000 0.000000
vn 0.012401 0.999846 -0.012401
vn 0.003400 0.999988 -0.003400
vn 0.000000 1.000000 0.000000
vn 0.000000 1.000000 0.000000
vn 0.000000 1.000000 0.000000
vn 0.000000 1.000000 0.000000
vn 0.000000 1.000000 0.000000
vn 0.000000 1.000000 0.000000
vn 0.000000 1.000000 0.000000
vn 0.000000 1.000000 0.000000
vn 0.000000 1.000000 0.000000
vn 0.000000 1.000000 0.000000
vn 0.000000 1.000000 0.000000
vn 0.000000 1.000000 0.000000
vn -0.017700 0.999102 -0.038500
vn 0.000000 1.000000 0.000000
vn 0.000000 1.000000 0.000000
vn -0.017700 0.999102 -0.038500
vn -0.049899 0.987182 -0.151597
vn -0.001800 0.999984 -0.005400
vn 0.000000 1.000000 0.000000
vn -0.049899 0.987182 -0.151597
vn -0.016300 0.974221 -0.225005
vn -0.003900 0.999816 -0.018800
vn -0.001800 0.999984 -0.005400
vn -0.016300 0.974221 -0.225005
vn 0.032098 0.981048 -0.191090
vn 0.003900 0.999931 -0.011100
vn -0.003900 0.999816 -0.018800
vn 0.032098 0.981048 -0.191090
vn 0.039499 0.995874 -0.081698
vn 0.001800 0.999997 -0.001800
vn 0.003900 0.999931 -0.011100
vn 0.039499 0.995874 -0.081698
vn 0.012401 0.999846 -0.012401
vn 0.000000 1.000000 0.000000
vn 0.001800 0.999997 -0.001800
vn 0.012401 0.999846 -0.012401
vn 0.000000 1.000000 0.000000
vn 0.000000 1.000000 0.000000
vn 0.000000 1.000000 0.000000
vn 0.000000 1.000000 0.000000
vn 0.000000 1.000000 0.000000
vn 0.000000 1.000000 0.000000
vn 0.000000 1.000000 0.000000
vn 0.000000 1.000000 0.000000
vn 0.000000 1.000000 0.000000
vn 0.000000 1.000000 0.000000
vn 0.000000 1.000000 0.000000
vn 0.000000 1.000000 0.000000
vn 0.000000 1.000000 0.000000
vn 0.000000 1.000000 0.000000
vn 0.000000 1.000000 0.000000
vn 0.000000 1.000000 0.000000
vn 0.000000 1.000000 0.000000
vn 0.000000 1.000000 0.000000
vn 0.000000 1.000000 0.000000
vn 0.000000 1.000000 0.000000
vn -0.001800 0.999984 -0.005400
vn 0.000000 1.000000 0.000000
vn 0.000000 1.000000 0.000000
vn -0.001800 0.999984 -0.005400
vn -0.003900 0.999816 -0.018800
vn 0.000000 1.000000 0.000000
vn 0.000000 1.000000 0.000000
vn -0.003900 0.999816 -0.018800
vn 0.003900 0.999931 -0.011100
vn 0.000000 1.000000 0.000000
vn 0.000000 1.000000 0.000000
vn 0.003900 0.999931 -0.011100
vn 0.001800 0.999997 -0.001800
vn 0.000000 1.000000 0.000000
vn 0.000000 1.000000 0.000000
vn 0.001800 0.999997 -0.001800
vn 0.000000 1.000000 0.000000
vn 0.000000 1.000000 0.000000
vn 0.000000 1.000000 0.000000
vn 0.000000 1.000000 0.000000
vn 0.000000 1.000000 0.000000
vn 0.000000 1.000000 0.000000
vn 0.000000 1.000000 0.000000
vn 0.000000 1.000000 0.000000
vn 0.000000 1.000000 0.000000
vn 0.000000 1.000000 0.000000
vn 0.000000 1.000000 0.000000
s off
g Plane001
usemtl ___Default
f 1/1/1 2/2/2 3/3/3 4/4/4
f 2/2/5 5/5/6 6/6/7 3/3/8
f 5/5/9 7/7/10 8/8/11 6/6/12
f 7/7/13 9/9/14 10/10/15 8/8/16
f 9/9/17 11/11/18 12/12/19 10/10/20
f 11/11/21 13/13/22 14/14/23 12/12/24
f 13/13/25 15/15/26 16/16/27 14/14/28
f 15/15/29 17/17/30 18/18/31 16/16/32
f 17/17/33 19/19/34 20/20/35 18/18/36
f 19/19/37 21/21/38 22/22/39 20/20/40
f 4/4/41 3/3/42 23/23/43 24/24/44
f 3/3/45 6/6/46 25/25/47 23/23/48
f 6/6/49 8/8/50 26/26/51 25/25/52
f 8/8/53 10/10/54 27/27/55 26/26/56
f 10/10/57 12/12/58 28/28/59 27/27/60
f 12/12/61 14/14/62 29/29/63 28/28/64
f 14/14/65 16/16/66 30/30/67 29/29/68
f 16/16/69 18/18/70 31/31/71 30/30/72
f 18/18/73 20/20/74 32/32/75 31/31/76
f 20/20/77 22/22/78 33/33/79 32/32/80
f 24/24/81 23/23/82 34/34/83 35/35/84
f 23/23/85 25/25/86 36/36/87 34/34/88
f 25/25/89 26/26/90 37/37/91 36/36/92
f 26/26/93 27/27/94 38/38/95 37/37/96
f 27/27/97 28/28/98 39/39/99 38/38/100
f 28/28/101 29/29/102 40/40/103 39/39/104
f 29/29/105 30/30/106 41/41/107 40/40/108
f 30/30/109 31/31/110 42/42/111 41/41/112
f 31/31/113 32/32/114 43/43/115 42/42/116
f 32/32/117 33/33/118 44/44/119 43/43/120
f 35/35/121 34/34/122 45/45/123 46/46/124
f 34/34/125 36/36/126 47/47/127 45/45/128
f 36/36/129 37/37/130 48/48/131 47/47/132
f 37/37/133 38/38/134 49/49/135 48/48/136
f 38/38/137 39/39/138 50/50/139 49/49/140
f 39/39/141 40/40/142 51/51/143 50/50/144
f 40/40/145 41/41/146 52/52/147 51/51/148
f 41/41/149 42/42/150 53/53/151 52/52/152
f 42/42/153 43/43/154 54/54/155 53/53/156
f 43/43/157 44/44/158 55/55/159 54/54/160
f 46/46/161 45/45/162 56/56/163 57/57/164
f 45/45/165 47/47/166 58/58/167 56/56/168
f 47/47/169 48/48/170 59/59/171 58/58/172
f 48/48/173 49/49/174 60/60/175 59/59/176
f 49/49/177 50/50/178 61/61/179 60/60/180
f 50/50/181 51/51/182 62/62/183 61/61/184
f 51/51/185 52/52/186 63/63/187 62/62/188
f 52/52/189 53/53/190 64/64/191 63/63/192
f 53/53/193 54/54/194 65/65/195 64/64/196
f 54/54/197 55/55/198 66/66/199 65/65/200
f 57/57/201 56/56/202 67/67/203 68/68/204
f 56/56/205 58/58/206 69/69/207 67/67/208
f 58/58/209 59/59/210 70/70/211 69/69/212
f 59/59/213 60/60/214 71/71/215 70/70/216
f 60/60/217 61/61/218 72/72/219 71/71/220
f 61/61/221 62/62/222 73/73/223 72/72/224
f 62/62/225 63/63/226 74/74/227 73/73/228
f 63/63/229 64/64/230 75/75/231 74/74/232
f 64/64/233 65/65/234 76/76/235 75/75/236
f 65/65/237 66/66/238 77/77/239 76/76/240
f 68/68/241 67/67/242 78/78/243 79/79/244
f 67/67/245 69/69/246 80/80/247 78/78/248
f 69/69/249 70/70/250 81/81/251 80/80/252
f 70/70/253 71/71/254 82/82/255 81/81/256
f 71/71/257 72/72/258 83/83/259 82/82/260
f 72/72/261 73/73/262 84/84/263 83/83/264
f 73/73/265 74/74/266 85/85/267 84/84/268
f 74/74/269 75/75/270 86/86/271 85/85/272
f 75/75/273 76/76/274 87/87/275 86/86/276
f 76/76/277 77/77/278 88/88/279 87/87/280
f 79/79/281 78/78/282 89/89/283 90/90/284
f 78/78/285 80/80/286 91/91/287 89/89/288
f 80/80/289 81/81/290 92/92/291 91/91/292
f 81/81/293 82/82/294 93/93/295 92/92/296
f 82/82/297 83/83/298 94/94/299 93/93/300
f 83/83/301 84/84/302 95/95/303 94/94/304
f 84/84/305 85/85/306 96/96/307 95/95/308
f 85/85/309 86/86/310 97/97/311 96/96/312
f 86/86/313 87/87/314 98/98/315 97/97/316
f 87/87/317 88/88/318 99/99/319 98/98/320
f 90/90/321 89/89/322 100/100/323 101/101/324
f 89/89/325 91/91/326 102/102/327 100/100/328
f 91/91/329 92/92/330 103/103/331 102/102/332
f 92/92/333 93/93/334 104/104/335 103/103/336
f 93/93/337 94/94/338 105/105/339 104/104/340
f 94/94/341 95/95/342 106/106/343 105/105/344
f 95/95/345 96/96/346 107/107/347 106/106/348
f 96/96/349 97/97/350 108/108/351 107/107/352
f 97/97/353 98/98/354 109/109/355 108/108/356
f 98/98/357 99/99/358 110/110/359 109/109/360
f 101/101/361 100/100/362 111/111/363 112/112/364
f 100/100/365 102/102/366 113/113/367 111/111/368
f 102/102/369 103/103/370 114/114/371 113/113/372
f 103/103/373 104/104/374 115/115/375 114/114/376
f 104/104/377 105/105/378 116/116/379 115/115/380
f 105/105/381 106/106/382 117/117/383 116/116/384
f 106/106/385 107/107/386 118/118/387 117/117/388
f 107/107/389 108/108/390 119/119/391 118/118/392
f 108/108/393 109/109/394 120/120/395 119/119/396
f 109/109/397 110/110/398 121/121/399 120/120/400
